<?xml version="1.0" standalone="no"?>
<!DOCTYPE svg PUBLIC "-//W3C//DTD SVG 20010904//EN"
 "http://www.w3.org/TR/2001/REC-SVG-20010904/DTD/svg10.dtd">
<svg version="1.0" xmlns="http://www.w3.org/2000/svg"
 width="480.000000pt" height="480.000000pt" viewBox="0 0 480.000000 480.000000"
 preserveAspectRatio="xMidYMid meet">
<metadata>
Created by potrace 1.14, written by Peter Selinger 2001-2017
</metadata>
<g transform="translate(0.000000,480.000000) scale(0.100000,-0.100000)"
fill="#000000" stroke="none">
<path d="M1200 3900 l0 -100 -100 0 -100 0 0 -100 0 -100 -100 0 -100 0 0
-800 0 -800 -100 0 -100 0 0 -400 0 -400 -100 0 -100 0 0 -600 0 -600 100 0
100 0 0 600 0 600 100 0 100 0 0 400 0 400 100 0 100 0 0 400 0 400 1400 0
1400 0 0 -300 0 -300 100 0 100 0 0 -100 0 -100 -200 0 -200 0 0 -300 0 -300
-500 0 -500 0 0 -100 0 -100 600 0 600 0 0 200 0 200 100 0 100 0 0 200 0 200
100 0 100 0 0 -300 0 -300 -100 0 -100 0 0 -200 0 -200 -200 0 -200 0 0 -100
0 -100 -100 0 -100 0 0 -100 0 -100 100 0 100 0 0 -200 0 -200 100 0 100 0 0
-100 0 -100 100 0 100 0 0 100 0 100 -100 0 -100 0 0 200 0 200 -100 0 -100 0
0 100 0 100 200 0 200 0 0 100 0 100 100 0 100 0 0 200 0 200 100 0 100 0 0
300 0 300 -100 0 -100 0 0 100 0 100 -100 0 -100 0 0 500 0 500 -100 0 -100 0
0 100 0 100 -100 0 -100 0 0 100 0 100 -100 0 -100 0 0 100 0 100 -1000 0
-1000 0 0 100 0 100 -100 0 -100 0 0 -100z m200 -200 l0 -100 100 0 100 0 0
-100 0 -100 100 0 100 0 0 -100 0 -100 -400 0 -400 0 0 200 0 200 100 0 100 0
0 100 0 100 100 0 100 0 0 -100z"/>
<path d="M2400 2500 l0 -100 100 0 100 0 0 100 0 100 -100 0 -100 0 0 -100z"/>
<path d="M3400 2500 l0 -100 100 0 100 0 0 100 0 100 -100 0 -100 0 0 -100z"/>
<path d="M1400 100 l0 -100 100 0 100 0 0 100 0 100 -100 0 -100 0 0 -100z"/>
</g>
</svg>
